<svg id="Layer_1" enable-background="new 0 0 512.03 512.03" height="512" viewBox="0 0 512.03 512.03" width="512" xmlns="http://www.w3.org/2000/svg"><g><path d="m372.952 343.044c-5.438-.994-11.039-1.514-16.76-1.514h-200.354c-5.721 0-11.322.52-16.76 1.514 35.827 25.541 57.081 66.642 57.081 110.842v58.144h119.713v-58.144c0-44.2 21.253-85.302 57.08-110.842z" fill="#beebfa"/><path d="m315.872 512.03v-58.144c0-44.2 21.254-85.302 57.081-110.842-5.438-.994-11.039-1.514-16.76-1.514h-100.178v170.5z" fill="#5ecef4"/><path d="m182.451 341.53h-26.613c-51.257 0-92.958 41.701-92.958 92.959v77.542h163.279v-58.144c0-42.193-15.87-82.071-43.708-112.357z" fill="#7c84e8"/><path d="m449.151 434.489c0-51.258-41.701-92.959-92.958-92.959h-26.613c-27.838 30.286-43.708 70.164-43.708 112.356v58.144h163.279z" fill="#7c84e8"/><path d="m449.151 434.489c0-51.258-41.701-92.959-92.958-92.959h-26.613c-27.838 30.286-43.708 70.164-43.708 112.356v58.144h163.279z" fill="#424ede"/><path d="m391.366 155.675h-34.702v89.084h34.702c24.561 0 44.542-19.981 44.542-44.542s-19.981-44.542-44.542-44.542z" fill="#eb8"/><path d="m391.366 155.675h-34.702v89.084h34.702c24.561 0 44.542-19.981 44.542-44.542s-19.981-44.542-44.542-44.542z" fill="#e3a76f"/><path d="m76.122 200.217c0 24.561 19.981 44.542 44.542 44.542h34.702v-89.084h-34.702c-24.56 0-44.542 19.981-44.542 44.542z" fill="#eb8"/><path d="m125.366 103.108v93.643c0 40.656 33.076 73.731 73.731 73.731 10.743 0 21.297-1.891 31.369-5.62l4.594-1.701c6.729-2.491 13.779-3.754 20.954-3.754s14.225 1.263 20.955 3.755l4.592 1.7c10.073 3.729 20.627 5.621 31.371 5.621 40.656 0 73.731-33.076 73.731-73.731v-93.643h-261.297z" fill="#f2d1a5"/><path d="m281.562 264.862c10.073 3.729 20.627 5.621 31.371 5.621 40.656 0 73.731-33.076 73.731-73.731v-93.643h-130.649v156.299c7.175 0 14.225 1.263 20.955 3.755z" fill="#eb8"/><g><path d="m293.682 179.177h30v30.002h-30z" fill="#373c41"/></g><g><path d="m188.348 179.177h30v30.002h-30z" fill="#373c41"/></g><path d="m396.665 0h-183.709c-48.297 0-87.59 39.292-87.59 87.59v180.051c0 57.285 46.604 103.89 103.89 103.89h53.519c57.285 0 103.89-46.604 103.89-103.89v-183.648c6.385-12.148 10-25.969 10-40.618zm-83.732 240.482c-7.176 0-14.226-1.263-20.955-3.755l-4.592-1.7c-10.074-3.729-20.628-5.621-31.37-5.621s-21.296 1.891-31.369 5.62l-4.595 1.701c-6.728 2.491-13.778 3.754-20.954 3.754-24.114 0-43.731-19.618-43.731-43.731v-65.786h153.709c17.533 0 33.878-5.178 47.589-14.085v79.871c-.001 24.115-19.619 43.732-43.732 43.732z" fill="#c48958"/><path d="m256.015 0v130.965h53.06c17.533 0 33.878-5.178 47.589-14.085v79.871c0 24.114-19.618 43.731-43.731 43.731-7.176 0-14.226-1.263-20.955-3.755l-4.592-1.7c-10.074-3.729-20.628-5.621-31.37-5.621v142.124h26.759c57.285 0 103.89-46.604 103.89-103.89v-183.647c6.385-12.148 10-25.969 10-40.618v-43.375z" fill="#b46e5a"/><path d="m256.015 318.816c-15.528 0-30.127-6.047-41.106-17.027l21.213-21.213c5.314 5.313 12.379 8.24 19.894 8.24s14.58-2.926 19.894-8.24l21.213 21.213c-10.981 10.981-25.58 17.027-41.108 17.027z" fill="#eb8"/><g><path d="m293.682 179.177h30v30.002h-30z" fill="#292d31"/></g><path d="m275.909 280.577c-5.314 5.313-12.379 8.24-19.894 8.24v30c15.528 0 30.127-6.047 41.106-17.027z" fill="#e3a76f"/></g></svg>